<svg width="274" height="33" viewBox="0 0 274 33" fill="none" xmlns="http://www.w3.org/2000/svg">
<path d="M200.284 0.668024C192.811 2.70624 187.57 8.67531 186.842 16.0517C186.308 21.8267 188.929 27.2619 193.587 30.1251C198.052 32.8913 205.137 33.0369 210.718 30.4163C213.775 29.009 217.706 25.0781 219.211 22.0208C220.715 18.8664 221.103 13.0429 220.036 9.84001C217.415 2.26948 209.02 -1.66137 200.284 0.668024ZM208.049 7.75326C213.484 10.5194 213.873 18.6238 208.874 23.0399C205.283 26.1943 200.818 26.2913 197.809 23.234C192.714 18.187 195.334 9.35472 202.614 7.17091C204.749 6.49151 205.768 6.63709 208.049 7.75326Z" fill="#0A4879"/>
<path d="M1.16978 0.716545C1.02419 0.95919 0.781546 2.07536 0.58743 3.28858C0.441843 4.50181 0.150669 5.86062 0.0536109 6.29738C-0.189034 7.07385 0.247727 7.17091 4.42122 7.17091C6.99326 7.17091 9.08001 7.36502 9.08001 7.55914C9.08001 7.94737 4.95504 28.8149 4.46975 30.8045C4.22711 31.8722 4.32417 31.9207 8.25502 31.9207H12.3315L14.127 22.7973C15.1461 17.7988 16.3108 12.2665 16.6991 10.4709L17.427 7.21944L22.0858 7.07385L26.7446 6.92826L27.3755 4.01652C27.7152 2.41506 27.9578 0.95919 28.0063 0.716545C28.0063 0.522429 22.0373 0.376842 14.7094 0.376842C7.38149 0.376842 1.26684 0.522429 1.16978 0.716545Z" fill="#0A4879"/>
<path d="M28.5887 15.7606C26.8902 24.2532 25.5313 31.3384 25.5799 31.581C25.5799 31.7752 31.2092 31.8722 38.0518 31.8237L50.5238 31.6781L50.912 29.7369C51.1061 28.6693 51.3973 27.3105 51.5429 26.6796L51.7856 25.612H43.293C33.7813 25.612 34.4122 25.9032 35.3827 21.7782L35.9166 19.3032L43.4871 19.2061L51.0091 19.0606L51.3973 17.1194C51.5914 16.0518 51.8826 14.6929 52.0282 14.0621L52.2708 12.9944H44.7488H37.1783L37.518 11.1503C37.7121 10.1797 38.0033 8.82093 38.1974 8.14152L38.4886 6.9283L46.7871 6.78271L55.037 6.68565L55.6193 3.9195C55.9105 2.4151 56.1532 1.00776 56.1532 0.76511C56.1532 0.570993 50.6209 0.376877 43.8753 0.376877H31.646L28.5887 15.7606Z" fill="#0A4879"/>
<path d="M62.6076 14.3047C58.0458 22.0208 53.8238 29.106 53.2415 30.0766L52.1738 31.9207H56.2988H60.4723L62.0252 29.009L63.5782 26.0487L70.4207 26.1943L77.2148 26.3399L77.8942 29.106L78.5736 31.9207H82.9412C86.2412 31.9207 87.2603 31.7751 87.1147 31.2898C86.9691 30.9987 85.125 23.8649 83.0383 15.5664L79.2045 0.376842H75.031H70.8575L62.6076 14.3047ZM75.6619 18.8179C75.8075 20.0311 75.7589 20.0311 71.5369 20.1767C68.1884 20.2737 67.2664 20.1767 67.4119 19.6914C67.509 19.3032 68.8678 16.6826 70.4693 13.7709L73.381 8.48119L74.4487 13.0429C75.031 15.5664 75.5648 18.1385 75.6619 18.8179Z" fill="#0A4879"/>
<path d="M93.8116 15.0326C92.2586 23.137 90.8998 30.2222 90.7542 30.8045C90.5116 31.8722 90.6087 31.9207 94.0542 31.9207H97.6454L99.538 21.9723C100.606 16.4885 101.576 12.1694 101.722 12.315C101.867 12.4606 102.984 16.1002 104.197 20.4193L106.381 28.281L109.05 28.4266L111.719 28.5722L117.494 20.1767C122.055 13.5282 123.172 12.1209 122.929 13.4797C122.783 14.4017 121.91 18.9635 120.988 23.5252L119.386 31.9207H122.978C124.919 31.9207 126.52 31.8237 126.52 31.7751C126.52 31.6781 127.83 24.8355 129.432 16.5855C131.033 8.3356 132.344 1.29889 132.344 0.95919C132.344 0.522429 131.179 0.376842 128.073 0.376842H123.803L117.542 9.59736C114.145 14.6444 111.185 18.6723 110.991 18.5752C110.797 18.4782 109.486 14.3047 108.031 9.35471L105.41 0.376842H101.042H96.6263L93.8116 15.0326Z" fill="#0A4879"/>
<path d="M135.838 15.7606C134.139 24.2531 132.78 31.3384 132.829 31.5325C132.829 31.7751 134.576 31.9207 136.663 31.9207C141.079 31.9207 140.594 32.4545 141.807 26.0972C142.244 23.8164 142.729 21.584 142.826 21.0988C143.069 20.3708 143.845 20.2738 150.057 20.2738C157.967 20.2738 156.996 20.8076 158.015 16.0032L158.452 13.965H151.464C143.505 13.965 143.991 14.3047 145.155 9.35472L145.689 6.92827L153.308 6.78269C161.752 6.6371 161.218 6.87975 161.752 2.80331L162.092 0.376856H150.493H138.895L135.838 15.7606Z" fill="#0A4879"/>
<path d="M163.499 15.7605C161.801 24.2531 160.442 31.3384 160.491 31.5325C160.491 31.7751 165.246 31.9207 171.118 31.9207H181.698L182.28 29.1546C183.154 24.8355 183.59 25.1267 176.262 25.1267C172.671 25.1267 169.711 25.0781 169.711 24.9811C169.711 24.884 170.827 19.4002 172.137 12.7517C173.496 6.10327 174.564 0.619488 174.564 0.522429C174.564 0.425371 172.768 0.376842 170.536 0.376842H166.557L163.499 15.7605Z" fill="#0A4879"/>
<path d="M225.18 1.44448C225.325 2.07536 226.49 9.1606 227.752 17.2164L230.13 31.9207H234.303H238.477L242.99 21.487C245.465 15.7605 247.649 11.0532 247.794 11.0532C247.989 11.0532 248.522 15.3723 249.008 20.6135C249.444 25.9031 249.978 30.6104 250.124 31.0957C250.318 31.8722 250.852 31.9207 254.491 31.8237L258.665 31.6781L266.333 16.0032L274 0.328312L269.827 0.4739L265.653 0.619488L260.994 11.6356C258.422 17.7502 256.238 22.7002 256.044 22.7002C255.899 22.7002 255.413 18.4782 254.928 13.3341C254.491 8.23855 253.958 3.19153 253.812 2.17242L253.521 0.328312L249.639 0.4739L245.708 0.619488L240.855 12.0238C238.186 18.2841 235.953 23.1855 235.905 22.9428C235.759 22.409 233.77 1.88124 233.77 0.95919C233.77 0.570957 232.362 0.376842 229.353 0.376842C225.034 0.376842 224.937 0.376842 225.18 1.44448Z" fill="#0A4879"/>
</svg>
