<svg width="156" height="148" viewBox="0 0 156 148" fill="none" xmlns="http://www.w3.org/2000/svg">
<path d="M124.854 73.1147L102.749 95.2191L97.6482 90.0209C94.8305 87.1061 89.0493 81.1792 84.8713 76.7583L77.2441 68.7424L38.622 107.364C17.3921 128.594 0 146.278 0 146.569C0 147.055 2.38048 147.201 10.445 147.201H20.8899V142.829V138.456H29.1487H37.4075V142.829V147.201H41.5369H45.6663V134.084V120.967H53.9251H62.1839V134.084V147.201H66.3133H70.4427V121.453V95.7049L77.2441 95.6078C80.9848 95.6078 84.6284 95.5592 85.4057 95.5106L86.7174 95.462L86.8632 121.307L86.9603 147.201H91.0897H95.2191V130.198V113.194H103.478H111.737V130.198V147.201H115.623H119.51V122.765C119.558 102.701 119.753 91.4784 120.19 91.0412C120.19 90.9926 123.833 90.8468 128.254 90.7982L136.27 90.6039L136.416 118.878L136.513 147.201H141.857H147.201V99.1056C147.201 72.6289 147.152 51.0103 147.055 51.0103C147.007 51.0103 136.999 60.9694 124.854 73.1147Z" fill="#6636A6"/>
<path d="M51.0287 16.2169C76.6482 16.2169 102.086 16.2115 127.523 16.2402C128.359 16.2412 129.195 16.588 130.138 16.7971C131.748 15.2048 133.592 13.3808 135.666 11.3301C133.669 9.41363 131.623 7.45102 129.355 5.27499C138.325 3.4991 147.014 1.77892 156 0C154.223 8.93048 152.504 17.5665 150.736 26.45C148.84 24.34 147.081 22.383 145.508 20.6337C128.738 37.155 112.455 53.1957 96.0006 69.4051C89.7322 62.8832 83.4504 56.3475 76.8048 49.4331C52.7954 73.7105 28.91 97.8625 5.02456 122.015C4.84258 121.89 4.66059 121.765 4.4786 121.64C4.44911 121.131 4.39468 120.621 4.39399 120.112C4.3875 115.316 4.32628 110.518 4.44434 105.725C4.46784 104.771 4.95982 103.615 5.62369 102.925C9.497 98.9027 13.4599 94.9648 17.4555 91.0627C18.3611 90.1781 18.6853 89.2752 18.6835 88.0304C18.6515 64.9001 18.6598 41.7698 18.6603 18.6394C18.6603 16.2174 18.6623 16.2169 21.1605 16.2169C31.0558 16.2167 40.9512 16.2168 51.0287 16.2169Z" fill="#68A0C4"/>
</svg>
